<?xml version="1.0" encoding="UTF-8" standalone="no"?>
<svg width="98px" height="92px" viewBox="0 0 98 92" version="1.1" xmlns="http://www.w3.org/2000/svg" xmlns:xlink="http://www.w3.org/1999/xlink">
    <!-- Generator: Sketch 39.1 (31720) - http://www.bohemiancoding.com/sketch -->
    <title>chat</title>
    <desc>Created with Sketch.</desc>
    <defs></defs>
    <g id="Page-1" stroke="none" stroke-width="1" fill="none" fill-rule="evenodd">
        <g id="chat" transform="translate(2.000000, 0.000000)">
            <path d="M19.2858389,0 C17.7759009,0 16.5472664,1.22863453 16.5472664,2.73857258 L16.5472664,19.8608565 L71.724126,19.8608565 C73.2340641,19.8608565 74.4626986,21.0791489 74.4626986,22.5911554 L74.4626986,62.8754754 L82.7363318,62.8754754 L94.5537729,74.7021517 C95.335938,75.4849281 95.9700081,75.2181619 95.9700081,74.1186741 L95.9700081,2.73857258 C95.9700081,1.22863453 94.7517156,0 93.2397091,0 L19.2858389,0 Z" id="Fill-2" fill="#C6CCD3"></path>
            <path d="M2.73857258,19.8608565 C1.22863453,19.8608565 0,21.0791489 0,22.5911554 L0,90.0164014 C0,90.5651314 0.314073721,90.6958913 0.711499914,90.2984651 L13.2336763,77.7762887 L71.724126,77.7762887 C73.2340641,77.7762887 74.4626986,76.5476542 74.4626986,75.0356477 L74.4626986,22.5911554 C74.4626986,21.0791489 73.2340641,19.8608565 71.724126,19.8608565 L2.73857258,19.8608565 Z" id="Fill-1" stroke="#5F6872" stroke-width="3" fill="#FFFFFF"></path>
            <path d="M36.4081228,38.0545758 L16.5472664,38.0545758 C15.6350983,38.0545758 14.8904713,37.3202909 14.8904713,36.4081228 C14.8904713,35.4938863 15.6350983,34.7513278 16.5472664,34.7513278 L36.4081228,34.7513278 C37.3202909,34.7513278 38.0545758,35.4938863 38.0545758,36.4081228 C38.0545758,37.3202909 37.3202909,38.0545758 36.4081228,38.0545758 L36.4081228,38.0545758 Z" id="Fill-3" stroke="#5F6872" fill="#5F6872"></path>
            <path d="M57.9154323,49.6417991 L16.5472664,49.6417991 C15.6350983,49.6417991 14.8904713,48.8992405 14.8904713,47.985004 C14.8904713,47.072836 15.6350983,46.328209 16.5472664,46.328209 L57.9154323,46.328209 C58.8276003,46.328209 59.5722273,47.072836 59.5722273,47.985004 C59.5722273,48.8992405 58.8276003,49.6417991 57.9154323,49.6417991 L57.9154323,49.6417991 Z" id="Fill-4" stroke="#5F6872" fill="#5F6872"></path>
            <path d="M57.9154323,61.2290224 L16.5472664,61.2290224 C15.6350983,61.2290224 14.8904713,60.4843954 14.8904713,59.5722273 C14.8904713,58.6579908 15.6350983,57.9154323 16.5472664,57.9154323 L57.9154323,57.9154323 C58.8276003,57.9154323 59.5722273,58.6579908 59.5722273,59.5722273 C59.5722273,60.4843954 58.8276003,61.2290224 57.9154323,61.2290224 L57.9154323,61.2290224 Z" id="Fill-5" stroke="#5F6872" fill="#5F6872"></path>
        </g>
    </g>
</svg>