<?xml version="1.0" encoding="UTF-8" standalone="no"?>
<svg width="54px" height="59px" viewBox="0 0 54 59" version="1.1" xmlns="http://www.w3.org/2000/svg" xmlns:xlink="http://www.w3.org/1999/xlink">
    <!-- Generator: Sketch 39.1 (31720) - http://www.bohemiancoding.com/sketch -->
    <title>Group 3</title>
    <desc>Created with Sketch.</desc>
    <defs></defs>
    <g id="Page-1" stroke="none" stroke-width="1" fill="none" fill-rule="evenodd">
        <g id="Artboard" transform="translate(-34.000000, -22.000000)">
            <g id="Group-3" transform="translate(34.000000, 22.000000)">
                <path d="M27.0540096,58.7458162 C21.9509421,56.8293177 18.5373638,53.6047732 17.6799607,48.1936819 C17.1769959,48.439257 16.640275,48.668798 16.0807689,48.8806171 C11.1346669,47.0231916 8.1,43.6906278 8.1,37.731845 L8.1,28.8 L24.0691329,28.8 L24.0691329,33.7697312 L22.2302733,33.7697312 L22.2302733,30.6262011 L9.93042061,30.6262011 L9.93042061,38.828072 C9.93042061,41.9310948 10.5076487,45.7699991 16.0807689,48.2426281 C21.6538891,45.7699991 22.2302733,41.9310948 22.2302733,38.828072 L22.2302733,36.4955305 L19.3205037,36.4955305 L19.3205037,44.9843276 C18.8175388,45.5007948 18.2234328,45.9995401 17.5069611,46.4662172 C17.4824879,46.1143106 17.4740489,45.7463699 17.4740489,45.3691463 L17.4740489,34.6541391 L28.9662886,34.6541391 L28.9662886,36.4955305 L24.0691329,36.4955305 L24.0691329,37.731845 C24.0691329,42.2500893 22.3214145,45.2543758 19.3289427,47.2527326 C19.4352742,50.8789739 20.6969057,55.2908868 27.0540096,58.1145785 C33.739391,55.1432041 34.7951107,50.4114529 34.7951107,46.6873192 L34.7951107,36.4955305 L31.7688828,36.4955305 L31.7688828,38.828072 C31.7688828,40.8998482 32.0414628,43.315092 33.8718834,45.4189364 L33.8718834,46.6704412 C31.3654983,44.6822111 29.9308671,41.8332024 29.9308671,37.731845 L29.9308671,28.8 L45.9,28.8 L45.9,37.731845 C45.9,43.6906278 42.866177,47.0231916 37.920075,48.8806171 C37.4002322,48.6848321 36.8972674,48.4721691 36.4187757,48.2426281 C35.5537775,53.6284024 32.1486381,56.8377567 27.0540096,58.7458162 L27.0540096,58.7458162 Z M31.7688828,34.6541391 L36.6339704,34.6541391 L36.6339704,45.3691463 C36.6339704,46.1303447 36.5917753,46.8510359 36.518356,47.538815 C36.9470575,47.7843901 37.4086712,48.0223701 37.920075,48.2426281 C43.4923513,45.7699991 44.0704233,41.9310948 44.0704233,38.828072 L44.0704233,30.6262011 L31.7688828,30.6262011 L31.7688828,34.6541391 L31.7688828,34.6541391 Z" id="Fill-12" fill="#0C5CA8"></path>
                <g id="Group-2" transform="translate(0.000000, 13.500000)" fill="#3E464E">
                    <path d="M13.0098462,10.3530462 C12.5396308,10.3530462 12.0611077,10.3688308 11.5817538,10.3920923 L11.5817538,10.0464923 C11.8741846,9.90941538 12.0685846,9.80390769 12.15,9.72332308 L12.2472,9.56298462 C12.2953846,9.43421538 12.3203077,9.15923077 12.3369231,8.72473846 C12.3610154,8.09584615 12.3768,7.71701538 12.3768,7.59655385 L12.3768,3.84064615 C12.3768,3.21258462 12.3610154,2.592 12.3369231,1.98803077 C12.3203077,1.55187692 12.2870769,1.28603077 12.2305846,1.20627692 C12.1740923,1.12569231 12.0843692,1.06089231 11.9630769,1.02101538 C11.8417846,0.988615385 11.5003385,0.956215385 10.9329231,0.947907692 L10.9329231,0.512584615 C12.1167692,0.536676923 12.8478462,0.552461538 13.1319692,0.552461538 C13.4401846,0.552461538 14.1463385,0.536676923 15.2338154,0.512584615 L15.2338154,0.947907692 C14.6497846,0.956215385 14.3008615,0.988615385 14.1704308,1.02101538 C14.0491385,1.06089231 13.9594154,1.11738462 13.9104,1.18966154 C13.8547385,1.28603077 13.8223385,1.512 13.8048923,1.86673846 C13.7974154,1.95563077 13.7808,2.61609231 13.7650154,3.84064615 L13.7650154,8.53116923 C13.7650154,9.02215385 13.7733231,9.4176 13.8048923,9.72332308 C14.3573538,9.75572308 14.4221538,9.76403077 14.9663077,9.76403077 C16.3453846,9.76403077 17.3763692,9.68261538 17.928,9.5148 C17.9936308,9.37772308 18.0501231,9.21572308 18.0991385,9.03876923 L18.3915692,7.87901538 L18.8700923,7.87901538 C18.7645846,8.57187692 18.6582462,9.3852 18.5535692,10.3123385 C18.3583385,10.3530462 18.1963385,10.3688308 18.0833538,10.3837846 C17.8308,10.3920923 17.4328615,10.3920923 16.9136308,10.3920923 L13.0098462,10.3530462" id="Fill-2"></path>
                    <path d="M22.0436308,10.3530462 L19.7955692,10.3920923 L19.7955692,9.9576 C20.3629846,9.94929231 20.7119077,9.91689231 20.8340308,9.87618462 C20.9636308,9.83630769 21.0450462,9.77981538 21.0932308,9.71501538 C21.1505538,9.61864615 21.1912615,9.40181538 21.2070462,9.04707692 C21.2153538,8.94156923 21.2236615,8.28110769 21.2477538,7.05655385 L21.2477538,3.84064615 C21.2477538,3.21258462 21.2311385,2.592 21.2070462,1.98803077 C21.1912615,1.55187692 21.1588615,1.28603077 21.1015385,1.20627692 C21.0450462,1.12569231 20.9553231,1.06089231 20.8340308,1.02101538 C20.7119077,0.988615385 20.3629846,0.956215385 19.7955692,0.947907692 L19.7955692,0.512584615 C20.7202154,0.536676923 21.4429846,0.552461538 21.9456,0.552461538 C22.4249538,0.552461538 23.1394154,0.536676923 24.0806769,0.512584615 L24.0806769,0.947907692 C23.5041231,0.956215385 23.1635077,0.988615385 23.0413846,1.02101538 C22.9109538,1.06089231 22.8303692,1.11738462 22.7813538,1.18966154 C22.7248615,1.28603077 22.6841538,1.50369231 22.6766769,1.86673846 C22.6683692,1.95563077 22.6525846,2.61609231 22.6276615,3.84064615 L22.6276615,7.05655385 C22.6276615,7.69292308 22.6442769,8.31350769 22.6525846,8.91 C22.6683692,9.34532308 22.7007692,9.61116923 22.7572615,9.69092308 C22.8145846,9.77233846 22.9034769,9.83630769 23.0256,9.87618462 C23.1552,9.91689231 23.5041231,9.94929231 24.0806769,9.9576 L24.0806769,10.3920923 C23.0496923,10.3688308 22.3676308,10.3530462 22.0436308,10.3530462 L22.0436308,10.3530462 Z M22.6276615,7.05655385 L22.6276615,3.84064615 C22.6525846,2.61609231 22.6683692,1.95563077 22.6766769,1.86673846 L22.6276615,7.05655385 L22.6276615,7.05655385 Z" id="Fill-3"></path>
                    <path d="M35.2395692,10.6421538 L35.0526462,10.4568923 L34.9388308,10.3530462 C34.9072615,10.3281231 34.8175385,10.2400615 34.6630154,10.0705846 C34.2576,9.62695385 33.9576923,9.29713846 33.7707692,9.07116923 L32.8286769,7.91889231 L27.6430154,1.96393846 L27.6430154,7.36227692 C27.6430154,7.82252308 27.6588,8.36169231 27.6920308,8.99058462 C27.7086462,9.37772308 27.7402154,9.61864615 27.7892308,9.70753846 L27.9429231,9.84461538 C28.1057538,9.90941538 28.4388923,9.94929231 28.9498154,9.9576 L28.9498154,10.3920923 C28.5277846,10.3688308 28.0492615,10.3530462 27.5383385,10.3530462 C26.9692615,10.3530462 26.3611385,10.3688308 25.6956923,10.3920923 L25.6956923,9.9576 C26.2066154,9.94929231 26.5472308,9.90941538 26.7092308,9.83630769 L26.8554462,9.70753846 C26.9044615,9.61116923 26.9376923,9.36941538 26.9617846,8.97396923 C26.9858769,8.36169231 27.0016615,7.83830769 27.0016615,7.39467692 L27.0016615,1.72966154 C27.0016615,1.5768 26.9941846,1.47129231 26.9692615,1.43141538 C26.9293846,1.35083077 26.8479692,1.24532308 26.7017538,1.134 C26.6211692,1.06089231 26.5156615,1.01270769 26.4010154,0.988615385 C26.2872,0.972 26.028,0.956215385 25.6383692,0.947907692 L25.6383692,0.512584615 C26.4749538,0.536676923 27.0099692,0.552461538 27.2292923,0.552461538 C27.5948308,0.552461538 27.9595385,0.536676923 28.3250769,0.512584615 C28.7304923,1.02101538 29.0304,1.39901538 29.2264615,1.64907692 L30.7193538,3.41446154 L32.8943077,5.94415385 C33.5838462,6.75 34.1437846,7.38636923 34.5741231,7.84661538 C34.8424615,8.15233846 35.0609538,8.39409231 35.2478769,8.56356923 L35.2478769,3.50335385 C35.2478769,3.04310769 35.2312615,2.51141538 35.2071692,1.90661538 C35.1830769,1.51947692 35.1506769,1.27772308 35.1091385,1.18966154 L34.9554462,1.05258462 C34.7934462,0.988615385 34.4528308,0.956215385 33.9493846,0.947907692 L33.9493846,0.512584615 C34.5259385,0.536676923 35.1091385,0.552461538 35.7023077,0.552461538 C36.2539385,0.552461538 36.7648615,0.536676923 37.2201231,0.512584615 L37.2201231,0.947907692 C36.7092,0.956215385 36.3760615,0.988615385 36.2140615,1.05258462 L36.0678462,1.19796923 C36.0188308,1.28603077 35.9781231,1.52778462 35.9623385,1.93153846 C35.9382462,2.53550769 35.9216308,3.0672 35.9216308,3.51083077 L35.9216308,6.85467692 C35.9216308,7.53175385 35.9382462,8.79784615 35.9623385,10.6504615 L35.2395692,10.6421538" id="Fill-4"></path>
                    <path d="M40.7259692,10.3530462 L38.4870462,10.3920923 L38.4870462,9.9576 C39.0544615,9.94929231 39.3959077,9.91689231 39.5246769,9.87618462 C39.6468,9.83630769 39.7365231,9.77981538 39.7847077,9.71501538 C39.8412,9.61864615 39.8744308,9.40181538 39.8902154,9.04707692 C39.8985231,8.94156923 39.9143077,8.28110769 39.9309231,7.05655385 L39.9309231,3.84064615 C39.9309231,3.21258462 39.9226154,2.592 39.8902154,1.98803077 C39.8744308,1.55187692 39.8412,1.28603077 39.7847077,1.20627692 C39.7365231,1.12569231 39.6468,1.06089231 39.5246769,1.02101538 C39.3959077,0.988615385 39.0544615,0.956215385 38.4870462,0.947907692 L38.4870462,0.512584615 C39.4116923,0.536676923 40.1253231,0.552461538 40.6287692,0.552461538 C41.1156,0.552461538 41.8300615,0.536676923 42.7638462,0.512584615 L42.7638462,0.947907692 C42.1956,0.956215385 41.8466769,0.988615385 41.7245538,1.02101538 C41.6024308,1.06089231 41.5127077,1.11738462 41.4728308,1.18966154 C41.4080308,1.28603077 41.3756308,1.50369231 41.3590154,1.86673846 C41.3507077,1.95563077 41.3424,2.61609231 41.3183077,3.84064615 L41.3183077,7.05655385 C41.3183077,7.69292308 41.3266154,8.31350769 41.3424,8.91 C41.3507077,9.34532308 41.3922462,9.61116923 41.4487385,9.69092308 C41.5052308,9.77233846 41.5941231,9.83630769 41.7162462,9.87618462 C41.8383692,9.91689231 42.1872923,9.94929231 42.7638462,9.9576 L42.7638462,10.3920923 C41.7328615,10.3688308 41.0591077,10.3530462 40.7259692,10.3530462" id="Fill-5"></path>
                    <path d="M47.5191692,10.3123385 C46.8703385,10.1345538 46.3095692,9.87618462 45.8235692,9.53889231 C45.3359077,9.20824615 44.9388,8.82941538 44.6297538,8.41818462 C44.3215385,7.99947692 44.0856,7.54753846 43.9236,7.05655385 C43.7616,6.57387692 43.6884923,6.03221538 43.6884923,5.45316923 C43.6884923,3.97855385 44.2318154,2.76147692 45.3109846,1.79446154 C46.3992923,0.826615385 47.8838769,0.343938462 49.7672308,0.343938462 C50.2058769,0.343938462 50.6187692,0.368030769 51.0009231,0.416215385 C51.3739385,0.465230769 51.8366769,0.552461538 52.3808308,0.690369231 C52.9241538,0.826615385 53.2572923,0.9072 53.3785846,0.932123077 C53.2739077,1.18218462 53.1916615,1.43141538 53.1434769,1.67316923 C53.0620615,2.06778462 53.0138769,2.52803077 52.9814769,3.04310769 L52.5428308,3.04310769 L52.5345231,2.22895385 C52.4863385,1.77784615 52.2188308,1.43972308 51.7394769,1.21458462 C51.2518154,0.996092308 50.5464923,0.883938462 49.6218462,0.883938462 C48.9231692,0.899723077 48.3308308,0.980307692 47.8514769,1.134 C47.3654769,1.29433846 46.9351385,1.5444 46.5696,1.89083077 C46.1957538,2.22895385 45.8958462,2.66427692 45.6607385,3.19596923 C45.4248,3.72018462 45.3035077,4.38064615 45.3035077,5.18649231 C45.3035077,6.58052308 45.7496308,7.70870769 46.6584923,8.55526154 C47.5598769,9.40929231 48.7528615,9.828 50.2382769,9.828 C50.9037231,9.828 51.5201538,9.73993846 52.0967077,9.57129231 C52.4863385,9.45 52.8759692,9.26473846 53.2572923,9.01467692 L53.3785846,9.15923077 L53.0952923,9.81221538 C52.5270462,10.0780615 51.9671077,10.2799385 51.4237846,10.4004 C50.8713231,10.5216923 50.2781538,10.5856615 49.6293231,10.5856615 C48.8741538,10.5856615 48.1688308,10.4976 47.5191692,10.3123385" id="Fill-6"></path>
                    <path d="M4.44793846,10.3123385 C3.79910769,10.1345538 3.23833846,9.87618462 2.75150769,9.53889231 C2.26550769,9.20824615 1.86673846,8.82941538 1.55852308,8.41818462 C1.25030769,7.99947692 1.01436923,7.54753846 0.852369231,7.05655385 C0.689538462,6.57387692 0.617261538,6.03221538 0.617261538,5.45316923 C0.617261538,3.97855385 1.16058462,2.76147692 2.23975385,1.79446154 C3.32806154,0.826615385 4.81264615,0.343938462 6.68852308,0.343938462 C7.13464615,0.343938462 7.54753846,0.368030769 7.92969231,0.416215385 C8.30270769,0.465230769 8.76544615,0.552461538 9.3096,0.690369231 C9.85292308,0.826615385 10.1860615,0.9072 10.3073538,0.932123077 C10.2018462,1.18218462 10.1204308,1.43141538 10.0722462,1.67316923 C9.99083077,2.06778462 9.94264615,2.52803077 9.91024615,3.04310769 L9.4716,3.04310769 L9.46329231,2.22895385 C9.41510769,1.77784615 9.14676923,1.43972308 8.66824615,1.21458462 C8.18058462,0.996092308 7.47526154,0.883938462 6.54978462,0.883938462 C5.85193846,0.899723077 5.25876923,0.980307692 4.78024615,1.134 C4.29341538,1.29433846 3.86307692,1.5444 3.49836923,1.89083077 C3.12452308,2.22895385 2.82461538,2.66427692 2.58950769,3.19596923 C2.35356923,3.72018462 2.23144615,4.38064615 2.23144615,5.18649231 C2.23144615,6.58052308 2.6784,7.70870769 3.57895385,8.55526154 C4.48781538,9.40929231 5.68163077,9.828 7.15873846,9.828 C7.83166154,9.828 8.44892308,9.73993846 9.02547692,9.57129231 C9.41510769,9.45 9.79643077,9.26473846 10.1860615,9.01467692 L10.3073538,9.15923077 L10.0240615,9.81221538 C9.45581538,10.0780615 8.89504615,10.2799385 8.34424615,10.4004 C7.80009231,10.5216923 7.20692308,10.5856615 6.55809231,10.5856615 C5.80375385,10.5856615 5.09676923,10.4976 4.44793846,10.3123385" id="Fill-7"></path>
                </g>
                <g id="Group" transform="translate(4.500000, 0.000000)" fill="#3E464E">
                    <path d="M6.52818462,10.5374769 C6.46338462,10.3605231 6.39858462,10.2159692 6.34956923,10.1187692 L5.84695385,9.10356923 L2.34858462,2.23726154 L2.34858462,7.08064615 C2.34858462,7.70870769 2.36436923,8.32181538 2.40507692,8.91747692 C2.41338462,9.35363077 2.45409231,9.61116923 2.51058462,9.69092308 C2.5596,9.77981538 2.6568,9.83630769 2.77892308,9.87618462 C2.90104615,9.91689231 3.25744615,9.94929231 3.834,9.9576 L3.834,10.4004 L2.06446154,10.3447385 L0.221815385,10.4004 L0.221815385,9.9576 C0.798369231,9.94929231 1.14729231,9.91689231 1.27772308,9.87618462 C1.40732308,9.83630769 1.49621538,9.77981538 1.54523077,9.71501538 C1.60172308,9.62695385 1.63412308,9.40181538 1.65073846,9.04707692 C1.65821538,8.94987692 1.66735385,8.29689231 1.69144615,7.08064615 L1.69144615,3.88883077 C1.69144615,3.26907692 1.67566154,2.6568 1.65073846,2.05116923 C1.63412308,1.62498462 1.60172308,1.35830769 1.54523077,1.27772308 C1.48790769,1.19796923 1.39984615,1.14147692 1.27772308,1.1016 C1.1556,1.06089231 0.798369231,1.0368 0.221815385,1.02849231 L0.221815385,0.560769231 C0.733569231,0.600646154 1.22953846,0.617261538 1.69144615,0.617261538 C2.1708,0.617261538 2.61692308,0.600646154 3.05556923,0.560769231 C3.48507692,1.49538462 3.87470769,2.30206154 4.23110769,2.99492308 L7.01584615,8.39409231 L9.52310769,3.44686154 C10.2051692,2.10018462 10.6596,1.14147692 10.8947077,0.560769231 C11.4064615,0.600646154 11.8442769,0.617261538 12.2015077,0.617261538 C12.5263385,0.617261538 13.0530462,0.600646154 13.7841231,0.560769231 L13.7841231,1.02849231 C13.1992615,1.0368 12.8511692,1.06089231 12.7290462,1.1016 C12.5994462,1.14147692 12.5180308,1.19796923 12.4698462,1.26941538 C12.4042154,1.35830769 12.3643385,1.5768 12.3560308,1.93153846 C12.3477231,2.01876923 12.3394154,2.68089231 12.3236308,3.88883077 L12.3236308,7.08064615 C12.3236308,7.70870769 12.3319385,8.32181538 12.3560308,8.91747692 C12.3718154,9.35363077 12.4042154,9.61116923 12.4607077,9.69092308 C12.5180308,9.77981538 12.6069231,9.83630769 12.7290462,9.87618462 C12.8511692,9.91689231 13.2075692,9.94929231 13.7841231,9.9576 L13.7841231,10.4004 C12.8021538,10.3605231 12.1043077,10.3447385 11.6980615,10.3447385 C11.3732308,10.3447385 10.6521231,10.3605231 9.53889231,10.4004 L9.53889231,9.9576 C10.1154462,9.94929231 10.4726769,9.91689231 10.6022769,9.87618462 C10.7244,9.83630769 10.8141231,9.77981538 10.8548308,9.71501538 C10.9188,9.61864615 10.9520308,9.40181538 10.9686462,9.04707692 C10.9686462,8.94987692 10.9844308,8.29689231 11.0002154,7.08064615 L11.0002154,2.00298462 L8.47633846,7.00836923 C8.07923077,7.78181538 7.77018462,8.40987692 7.54255385,8.88507692 C7.38055385,9.23233846 7.13713846,9.77981538 6.81230769,10.5374769 L6.52818462,10.5374769" id="Fill-8"></path>
                    <path d="M23.7267692,10.3530462 L21.3640615,10.4004 L21.3640615,9.9576 C21.9165231,9.94929231 22.2496615,9.93350769 22.3634769,9.90941538 C22.4839385,9.88449231 22.5578769,9.85292308 22.5977538,9.80390769 L22.6633846,9.64273846 C22.6633846,9.5472 22.6301538,9.40929231 22.5653538,9.24812308 L21.6564923,7.12966154 L17.4037846,7.12966154 L16.6170462,8.91 C16.4791385,9.23233846 16.4052,9.46661538 16.4052,9.61116923 L16.4625231,9.77233846 C16.5190154,9.828 16.6004308,9.86870769 16.7134154,9.8928 C16.8928615,9.93350769 17.2093846,9.9576 17.6638154,9.9576 L17.6638154,10.4004 C16.8355385,10.3688308 16.2191077,10.3530462 15.8045538,10.3530462 C15.3343385,10.3530462 14.8151077,10.3688308 14.2468615,10.4004 L14.2468615,9.9576 C14.6281846,9.9576 14.8716,9.94098462 14.9688,9.91689231 C15.0668308,9.88449231 15.1557231,9.83630769 15.2371385,9.76403077 C15.3177231,9.69923077 15.4315385,9.5148 15.5860615,9.20824615 C15.6674769,9.03876923 15.984,8.38578462 16.5356308,7.25843077 L18.3691385,3.34966154 C18.5726769,2.92181538 19.0021846,1.96393846 19.6601538,0.472707692 L20.1228923,0.472707692 L23.2632,7.43538462 C23.7749538,8.56356923 24.1072615,9.26473846 24.2775692,9.55467692 C24.3672923,9.72332308 24.4728,9.828 24.5783077,9.87618462 C24.6921231,9.9252 24.9347077,9.9576 25.3251692,9.9576 L25.3251692,10.4004 C24.5625231,10.3688308 24.0258462,10.3530462 23.7267692,10.3530462 L23.7267692,10.3530462 Z M17.6555077,6.54147692 L21.3640615,6.54147692 L19.5305538,2.37433846 L17.6555077,6.54147692 L17.6555077,6.54147692 Z" id="Fill-9"></path>
                    <path d="M28.8634154,10.3530462 C28.3117846,10.3530462 27.5732308,10.3688308 26.6643692,10.4004 L26.6643692,9.9576 C27.2326154,9.94929231 27.5815385,9.9252 27.7036615,9.88449231 C27.8324308,9.84461538 27.9138462,9.78812308 27.9545538,9.72332308 C28.0193538,9.62695385 28.0600615,9.40929231 28.0683692,9.05455385 C28.0766769,8.95818462 28.0924615,8.3052 28.1165538,7.09643077 L28.1165538,6.29058462 C28.0118769,6.08123077 27.9138462,5.89596923 27.8166462,5.7348 C27.7435385,5.62264615 27.5001231,5.21889231 27.0697846,4.54181538 L25.2030462,1.92323077 C24.9762462,1.56018462 24.8059385,1.34252308 24.6921231,1.24532308 C24.6024,1.17387692 24.4802769,1.11738462 24.3348923,1.07750769 C24.1895077,1.04510769 23.9942769,1.02101538 23.4094154,1.0044 L23.4094154,0.560769231 C24.3756,0.593169231 24.6597231,0.608953846 25.1465538,0.608953846 C25.65,0.608953846 26.9401846,0.593169231 27.8490462,0.560769231 L27.8490462,1.0044 C27.2816308,1.02101538 26.7864923,1.04510769 26.6884615,1.07750769 C26.5912615,1.11738462 26.5422462,1.18218462 26.5347692,1.26193846 C26.5264615,1.34252308 26.6560615,1.6092 26.9069538,2.04369231 L29.0910462,5.54953846 L31.4196923,2.04369231 C31.7121231,1.6092 31.8500308,1.34252308 31.8583385,1.26193846 C31.8583385,1.18218462 31.8101538,1.11738462 31.7204308,1.07750769 C31.6232308,1.04510769 31.2012,1.02101538 30.6412615,1.0044 L30.6412615,0.560769231 C31.5418154,0.593169231 32.0768308,0.608953846 32.5811077,0.608953846 C33.0679385,0.608953846 33.3279692,0.593169231 34.2933231,0.560769231 L34.2933231,1.0044 C33.7092923,1.02101538 33.4982769,1.04510769 33.3520615,1.07750769 C33.1975385,1.11738462 33.0762462,1.17387692 32.9782154,1.24532308 C32.8569231,1.34252308 32.6616923,1.56018462 32.4024923,1.92323077 L30.2591077,4.96966154 C29.8462154,5.61433846 29.6102769,6.00895385 29.5612615,6.15350769 C29.5039385,6.29889231 29.4798462,6.43596923 29.4798462,6.56473846 L29.4798462,7.09643077 C29.4798462,7.72532308 29.4881538,8.32929231 29.5213846,8.92578462 C29.538,9.36110769 29.5695692,9.61864615 29.6260615,9.69923077 C29.6759077,9.77981538 29.7722769,9.84461538 29.8944,9.88449231 C30.0082154,9.9252 30.3571385,9.94929231 30.9253846,9.9576 L30.9253846,10.4004 C30.1303385,10.3688308 29.4399692,10.3530462 28.8634154,10.3530462" id="Fill-10"></path>
                    <path d="M36.7440923,10.2317538 C36.0786462,9.99747692 35.5187077,9.64273846 35.0559692,9.18415385 C34.6015385,8.71643077 34.2526154,8.15233846 34.0175077,7.49104615 C33.7740923,6.83058462 33.6519692,6.17012308 33.6519692,5.52544615 C33.6519692,4.79187692 33.7740923,4.11563077 34.0008923,3.50335385 C34.2368308,2.88193846 34.6181538,2.32615385 35.154,1.82686154 C35.6890154,1.33421538 36.2979692,0.963692308 36.9800308,0.713630769 C37.6529538,0.465230769 38.4322154,0.343938462 39.3012,0.343938462 C40.1045538,0.343938462 40.8348,0.448615385 41.4919385,0.657969231 C42.1499077,0.875630769 42.6932308,1.15726154 43.1152615,1.512 C43.5372923,1.86673846 43.8621231,2.25304615 44.1047077,2.67258462 C44.2924615,2.98661538 44.4461538,3.34966154 44.5516615,3.77667692 C44.6654769,4.20369231 44.7136615,4.66310769 44.7136615,5.14578462 C44.7136615,6.70181538 44.1628615,7.99116923 43.0587692,9.03046154 C41.9546769,10.0622769 40.5664615,10.5781846 38.8866462,10.5781846 C38.1156923,10.5781846 37.4012308,10.4568923 36.7440923,10.2317538 L36.7440923,10.2317538 Z M36.9468,1.4148 C36.3627692,1.74544615 35.9249538,2.22064615 35.6325231,2.84123077 C35.3317846,3.46264615 35.1855692,4.16381538 35.1855692,4.95304615 C35.1855692,5.38836923 35.2345846,5.83116923 35.3243077,6.29058462 C35.4206769,6.74169231 35.5353231,7.13713846 35.6807077,7.45864615 C35.9083385,8.01609231 36.2165538,8.48298462 36.5895692,8.85350769 C36.9717231,9.23233846 37.3929231,9.5148 37.8556615,9.69092308 C38.3184,9.8604 38.8384615,9.94929231 39.3984,9.94929231 C40.1859692,9.94929231 40.8672,9.77233846 41.4429231,9.40929231 C42.0203077,9.04707692 42.4498154,8.53947692 42.7331077,7.87901538 C43.0255385,7.22603077 43.1634462,6.46006154 43.1634462,5.59772308 C43.1634462,4.86498462 43.0587692,4.18790769 42.8552308,3.56649231 C42.7331077,3.18849231 42.5636308,2.84953846 42.3526154,2.54381538 C42.1416,2.23726154 41.8981846,1.96393846 41.6057538,1.73796923 C41.3133231,1.50369231 40.9403077,1.31012308 40.4775692,1.15726154 C40.0156615,1.0044 39.5196923,0.923815385 38.9846769,0.923815385 C38.2054154,0.923815385 37.5308308,1.09329231 36.9468,1.4148 L36.9468,1.4148 Z" id="Fill-11"></path>
                </g>
            </g>
        </g>
    </g>
</svg>