<?xml version="1.0" encoding="UTF-8" standalone="no"?>
<svg width="155px" height="148px" viewBox="0 0 155 148" version="1.1" xmlns="http://www.w3.org/2000/svg" xmlns:xlink="http://www.w3.org/1999/xlink">
    <!-- Generator: Sketch 39.1 (31720) - http://www.bohemiancoding.com/sketch -->
    <title>placeholder_chat copy</title>
    <desc>Created with Sketch.</desc>
    <defs></defs>
    <g id="Page-1" stroke="none" stroke-width="1" fill="none" fill-rule="evenodd">
        <g id="placeholder_chat-copy" transform="translate(2.000000, 2.000000)">
            <path d="M58.5294118,2.99609565 C58.5294118,1.34139771 59.8703807,0 61.5253621,0 L135.690324,0 C137.344942,0 138.686275,1.34285776 138.686275,2.99609565 L138.686275,50.2509632 C138.686275,51.9056611 137.344502,53.2470588 135.6799,53.2470588 L124.005134,53.2470588 L124.005135,65.7512947 L106.871082,53.2470588 L61.5351349,53.2470588 C59.8751199,53.2470588 58.5294118,51.9042011 58.5294118,50.2509632 L58.5294118,2.99609565 Z" id="Rectangle-2" stroke="#A4ADB7" stroke-width="3" stroke-linejoin="round" fill="#F0F2F4"></path>
            <g id="Group-2" transform="translate(0.000000, 102.000000)">
                <ellipse id="Oval" stroke="#A4ADB7" stroke-width="3" fill="#FFFFFF" cx="21.1843137" cy="21.1843137" rx="21.1843137" ry="21.1843137"></ellipse>
                <path d="M9.015,37.289 C8.644,37.493 8.308,37.743 8,38.012 C11.687,41.121 16.449,42.996 21.648,42.996 C26.812,42.996 31.543,41.149 35.219,38.082 C34.883,37.797 34.511,37.539 34.105,37.336 L27.332,33.95 C26.457,33.512 25.902,32.618 25.902,31.637 L25.902,28.981 C26.094,28.766 26.312,28.485 26.543,28.157 C27.469,26.852 28.164,25.418 28.648,23.914 C29.519,23.645 30.16,22.844 30.16,21.891 L30.16,19.055 C30.16,18.43 29.883,17.871 29.449,17.481 L29.449,13.379 C29.449,13.379 30.293,7 21.648,7 C13.008,7 13.851,13.379 13.851,13.379 L13.851,17.481 C13.418,17.871 13.14,18.43 13.14,19.055 L13.14,21.891 C13.14,22.637 13.535,23.293 14.121,23.676 C14.832,26.762 16.687,28.981 16.687,28.981 L16.687,31.575 C16.687,32.516 16.168,33.387 15.34,33.84 L9.015,37.289 Z" id="Fill-1" fill="#A4ADB7"></path>
            </g>
            <g id="Group-2-Copy-2" transform="translate(108.631373, 76.000000)">
                <ellipse id="Oval" stroke="#A4ADB7" stroke-width="3" fill="#EDEEF1" cx="21.1843137" cy="21.1843137" rx="21.1843137" ry="21.1843137"></ellipse>
                <path d="M15.34,33.84 L9.015,37.289 C8.644,37.493 8.308,37.743 8,38.012 C11.687,41.121 16.449,42.996 21.648,42.996 C26.812,42.996 31.543,41.149 35.219,38.082 C34.883,37.797 34.511,37.539 34.105,37.336 L27.332,33.95 C26.457,33.512 25.902,32.618 25.902,31.637 L25.902,28.981 C26.094,28.766 26.312,28.485 26.543,28.157 C27.469,26.852 28.164,25.418 28.648,23.914 C29.519,23.645 30.16,22.844 30.16,21.891 L30.16,19.055 C30.16,18.43 29.883,17.871 29.449,17.481 L29.449,13.379 C29.449,13.379 30.293,7 21.648,7 C13.008,7 13.851,13.379 13.851,13.379 L13.851,17.481 C13.418,17.871 13.14,18.43 13.14,19.055 L13.14,21.891 C13.14,22.637 13.535,23.293 14.121,23.676 C14.832,26.762 16.687,28.981 16.687,28.981 L16.687,31.575 C16.687,32.516 16.168,33.387 15.34,33.84 L15.34,33.84 Z" id="Fill-1" fill="#A4ADB7"></path>
            </g>
            <path d="M7,21.0012588 C7,19.3437093 8.34355967,18 10.0014275,18 L99.0417097,18 C100.699352,18 102.043137,19.3420568 102.043137,21.0012588 L102.043137,78.5516823 C102.043137,80.2092318 100.705914,81.5529412 99.0494755,81.5529412 L43.3035205,81.5529412 L25.3933644,94.20117 L25.3933634,81.5529412 L9.99614818,81.5529412 C8.34142123,81.5529412 7,80.2108844 7,78.5516823 L7,21.0012588 Z" id="Rectangle" stroke="#A4ADB7" stroke-width="3" stroke-linejoin="round" fill="#FFFFFF"></path>
            <g id="Group-3" transform="translate(28.000000, 34.000000)" stroke="#A4ADB7" stroke-width="4" stroke-linecap="round" fill="#FFFFFF">
                <path d="M0.214705882,1.14509804 L52.2147059,1.14509814" id="Line"></path>
                <path d="M0.214705882,14.8862745 L52.2147059,14.8862745" id="Line-Copy"></path>
                <path d="M0.214705882,28.627451 L26.2147059,28.627451" id="Line-Copy-2"></path>
            </g>
        </g>
    </g>
</svg>