<svg width="98" height="92" viewBox="0 0 98 92" xmlns="http://www.w3.org/2000/svg"><title>chat</title><g fill="none" fill-rule="evenodd"><path d="M21.286 0a2.742 2.742 0 0 0-2.739 2.739V19.86h55.177a2.733 2.733 0 0 1 2.739 2.73v40.284h8.273l11.818 11.827c.782.783 1.416.516 1.416-.583V2.739A2.733 2.733 0 0 0 95.24 0H21.286z" fill="#C6CCD3"/><path d="M4.739 19.86A2.733 2.733 0 0 0 2 22.592v67.425c0 .55.314.68.711.282l12.523-12.522h58.49a2.742 2.742 0 0 0 2.739-2.74V22.59a2.733 2.733 0 0 0-2.739-2.73H4.74z" stroke="#5F6872" stroke-width="3" fill="#FFF"/><path d="M38.408 38.055h-19.86a1.652 1.652 0 0 1-1.658-1.647 1.66 1.66 0 0 1 1.657-1.657h19.861a1.65 1.65 0 0 1 1.647 1.657c0 .912-.735 1.647-1.647 1.647zM59.915 49.642H18.547a1.66 1.66 0 0 1-1.657-1.657 1.66 1.66 0 0 1 1.657-1.657h41.368a1.66 1.66 0 0 1 1.657 1.657 1.66 1.66 0 0 1-1.657 1.657zM59.915 61.229H18.547a1.66 1.66 0 0 1-1.657-1.657 1.66 1.66 0 0 1 1.657-1.657h41.368a1.66 1.66 0 0 1 1.657 1.657 1.66 1.66 0 0 1-1.657 1.657z" stroke="#5F6872" fill="#5F6872"/></g></svg>