<svg width="54" height="59" viewBox="0 0 54 59" xmlns="http://www.w3.org/2000/svg"><title>Group 3</title><g fill="none" fill-rule="evenodd"><path d="M27.054 58.746c-5.103-1.917-8.517-5.141-9.374-10.552-.503.245-1.04.475-1.6.687-4.945-1.858-7.98-5.19-7.98-11.15V28.8h15.97v4.97h-1.84v-3.144H9.93v8.202c0 3.103.578 6.942 6.15 9.415 5.574-2.473 6.15-6.312 6.15-9.415v-2.332h-2.91v8.488a10.542 10.542 0 0 1-1.813 1.482c-.025-.352-.033-.72-.033-1.097V34.654h11.492v1.842H24.07v1.236c0 4.518-1.748 7.522-4.74 9.52.106 3.627 1.368 8.039 7.725 10.863 6.685-2.972 7.741-7.704 7.741-11.428V36.496H31.77v2.332c0 2.072.272 4.487 2.103 6.59v1.252c-2.507-1.988-3.941-4.837-3.941-8.938V28.8H45.9v8.932c0 5.959-3.034 9.291-7.98 11.149a18.782 18.782 0 0 1-1.501-.638c-.865 5.385-4.27 8.595-9.365 10.503zm4.715-24.092h4.865V45.37c0 .761-.042 1.482-.116 2.17.43.245.89.483 1.402.704 5.572-2.473 6.15-6.312 6.15-9.415v-8.202H31.77v4.028z" fill="#0C5CA8"/><g fill="#3E464E"><path d="M13.01 23.853c-.47 0-.949.016-1.428.04v-.347c.292-.137.487-.242.568-.323l.097-.16c.048-.129.073-.404.09-.838.024-.63.04-1.008.04-1.128V17.34c0-.628-.016-1.249-.04-1.853-.017-.436-.05-.702-.106-.782a.513.513 0 0 0-.268-.185c-.121-.032-.463-.065-1.03-.073v-.435c1.184.024 1.915.04 2.199.04.308 0 1.014-.016 2.102-.04v.435c-.584.008-.933.04-1.064.073a.489.489 0 0 0-.26.169c-.055.096-.088.322-.105.677-.008.089-.024.75-.04 1.974v4.69c0 .491.008.887.04 1.192.552.033.617.041 1.161.041 1.38 0 2.41-.081 2.962-.25.066-.136.122-.298.171-.475l.293-1.16h.478a64.334 64.334 0 0 0-.316 2.433c-.196.041-.358.057-.47.072-.253.008-.651.008-1.17.008l-3.904-.039M22.044 23.853l-2.248.04v-.435c.567-.009.916-.041 1.038-.082a.487.487 0 0 0 .26-.161c.057-.096.097-.313.113-.668.008-.105.017-.766.04-1.99V17.34a46.5 46.5 0 0 0-.04-1.853c-.016-.436-.048-.702-.105-.782a.513.513 0 0 0-.268-.185c-.122-.032-.471-.065-1.038-.073v-.435c.924.024 1.647.04 2.15.04.479 0 1.193-.016 2.135-.04v.435c-.577.008-.917.04-1.04.073a.455.455 0 0 0-.26.169c-.056.096-.097.314-.104.677-.009.089-.024.75-.05 1.974v3.216c0 .636.017 1.257.026 1.853.015.435.048.701.104.78a.51.51 0 0 0 .269.186c.13.04.478.073 1.055.082v.434c-1.031-.023-1.713-.039-2.037-.039zm.584-3.296V17.34c.025-1.225.04-1.885.049-1.974l-.05 5.19zM35.24 24.142l-.187-.185-.114-.104a3.477 3.477 0 0 1-.276-.282 32.2 32.2 0 0 1-.892-1l-.942-1.152-5.186-5.955v5.398c0 .46.016 1 .049 1.629.017.387.048.628.097.717l.154.137c.163.064.496.104 1.007.113v.434c-.422-.023-.9-.039-1.412-.039-.569 0-1.177.016-1.842.04v-.435c.51-.009.851-.049 1.013-.122l.146-.128c.05-.097.083-.339.107-.734.024-.612.04-1.136.04-1.58V15.23c0-.153-.008-.259-.033-.299a.895.895 0 0 0-.267-.297.642.642 0 0 0-.301-.145 7.843 7.843 0 0 0-.763-.041v-.435c.837.024 1.372.04 1.591.04.366 0 .73-.016 1.096-.04.405.508.705.886.901 1.136l1.493 1.765 2.175 2.53c.69.806 1.25 1.442 1.68 1.903.268.305.487.547.674.717v-5.06c0-.46-.017-.993-.04-1.597-.025-.388-.057-.63-.099-.717l-.154-.137c-.162-.064-.502-.097-1.006-.105v-.435c.577.024 1.16.04 1.753.04.552 0 1.063-.016 1.518-.04v.435c-.51.008-.844.04-1.006.105l-.146.145c-.05.088-.09.33-.106.734-.024.604-.04 1.135-.04 1.579v3.344c0 .677.016 1.943.04 3.795l-.722-.008M40.726 23.853l-2.239.04v-.435c.567-.009.909-.041 1.038-.082a.523.523 0 0 0 .26-.161c.056-.096.09-.313.105-.668.009-.105.024-.766.04-1.99V17.34c0-.628-.007-1.249-.04-1.853-.016-.436-.049-.702-.105-.782a.458.458 0 0 0-.26-.185c-.13-.032-.47-.065-1.038-.073v-.435c.925.024 1.638.04 2.142.04.487 0 1.201-.016 2.135-.04v.435c-.568.008-.917.04-1.04.073-.122.04-.211.096-.251.169-.065.096-.097.314-.114.677-.008.089-.017.75-.04 1.974v3.216c0 .636.008 1.257.023 1.853.009.435.05.701.107.78a.505.505 0 0 0 .267.186c.122.04.471.073 1.048.082v.434c-1.031-.023-1.705-.039-2.038-.039M47.52 23.812a5.477 5.477 0 0 1-1.696-.773 4.966 4.966 0 0 1-1.194-1.12 4.84 4.84 0 0 1-.706-1.362c-.162-.483-.236-1.025-.236-1.604 0-1.474.544-2.692 1.623-3.659 1.088-.967 2.573-1.45 4.456-1.45.439 0 .852.024 1.234.072.373.05.836.136 1.38.274.543.137.876.217.998.242-.105.25-.187.5-.236.741-.08.395-.13.855-.162 1.37h-.438l-.008-.814c-.049-.451-.316-.79-.796-1.014-.487-.219-1.193-.331-2.117-.331-.699.016-1.291.096-1.77.25-.487.16-.917.41-1.282.757-.374.338-.674.773-.91 1.305-.235.524-.356 1.185-.356 1.99 0 1.395.446 2.523 1.354 3.37.902.853 2.095 1.272 3.58 1.272.666 0 1.282-.088 1.859-.257.39-.121.779-.306 1.16-.556l.122.144-.284.653a8.138 8.138 0 0 1-1.671.588 8.324 8.324 0 0 1-1.795.186 7.68 7.68 0 0 1-2.11-.274M4.448 23.812a5.49 5.49 0 0 1-1.696-.773 4.977 4.977 0 0 1-1.193-1.12 4.84 4.84 0 0 1-.707-1.362c-.162-.483-.235-1.025-.235-1.604 0-1.474.544-2.692 1.623-3.659 1.088-.967 2.573-1.45 4.449-1.45.446 0 .859.024 1.24.072.374.05.836.136 1.38.274.544.137.877.217.998.242-.105.25-.187.5-.235.741-.081.395-.13.855-.162 1.37h-.438l-.009-.814c-.048-.451-.316-.79-.795-1.014-.487-.219-1.193-.331-2.118-.331-.698.016-1.291.096-1.77.25-.487.16-.917.41-1.282.757-.373.338-.673.773-.908 1.305-.236.524-.359 1.185-.359 1.99 0 1.395.447 2.523 1.348 3.37.909.853 2.103 1.272 3.58 1.272.673 0 1.29-.088 1.866-.257.39-.121.771-.306 1.161-.556l.121.144-.283.653a8.052 8.052 0 0 1-1.68.588 8.19 8.19 0 0 1-1.786.186 7.68 7.68 0 0 1-2.11-.274"/></g><g fill="#3E464E"><path d="M11.028 10.537a4.05 4.05 0 0 0-.178-.418l-.503-1.015-3.498-6.867v4.844c0 .628.015 1.24.056 1.836.008.437.05.694.106.774.049.089.146.145.268.185.122.04.478.073 1.055.082v.442l-1.77-.055-1.842.055v-.442c.576-.009.925-.041 1.056-.082a.52.52 0 0 0 .267-.161c.057-.088.09-.313.106-.668.007-.097.016-.75.04-1.966V3.889c0-.62-.015-1.232-.04-1.838-.017-.426-.05-.693-.106-.773a.506.506 0 0 0-.267-.176c-.122-.041-.48-.065-1.056-.074V.561c.512.04 1.008.056 1.47.056.479 0 .925-.016 1.364-.056.43.934.819 1.741 1.175 2.434l2.785 5.4 2.507-4.948C14.705 2.1 15.16 1.14 15.395.56c.511.04.95.056 1.307.056.324 0 .851-.016 1.582-.056v.467c-.585.009-.933.033-1.055.074-.13.04-.211.096-.26.167-.065.09-.105.308-.113.663-.008.087-.017.749-.032 1.957V7.08c0 .628.008 1.24.032 1.836.016.437.048.694.105.774a.472.472 0 0 0 .268.185c.122.04.479.073 1.055.082v.442c-.982-.04-1.68-.055-2.086-.055-.325 0-1.046.016-2.16.055v-.442c.577-.009.935-.041 1.064-.082.122-.04.212-.096.253-.161.064-.096.097-.313.114-.668 0-.097.015-.75.031-1.966V2.003l-2.524 5.005a76.445 76.445 0 0 0-.933 1.877c-.162.347-.406.895-.73 1.652h-.285M28.227 10.353l-2.363.047v-.442c.553-.009.886-.024 1-.049.12-.025.194-.056.234-.105l.065-.161c0-.096-.033-.234-.098-.395l-.909-2.118h-4.252l-.787 1.78c-.138.322-.212.557-.212.701l.058.161a.493.493 0 0 0 .25.12c.18.042.496.066.95.066v.442a53.313 53.313 0 0 0-1.858-.047c-.47 0-.99.016-1.558.047v-.442c.381 0 .625-.017.722-.041a.75.75 0 0 0 .268-.153c.08-.065.195-.25.35-.556.08-.17.397-.822.949-1.95l1.833-3.908c.204-.428.633-1.386 1.291-2.877h.463l3.14 6.962c.512 1.129.844 1.83 1.015 2.12.09.168.195.273.3.321.114.05.357.082.747.082v.442c-.762-.031-1.3-.047-1.598-.047zm-6.071-3.812h3.708l-1.833-4.167-1.875 4.167zM33.363 10.353c-.551 0-1.29.016-2.199.047v-.442c.569-.009.918-.033 1.04-.074.128-.04.21-.096.25-.16.065-.097.106-.315.114-.67.009-.096.024-.749.049-1.958v-.805a8.134 8.134 0 0 0-.3-.556c-.073-.112-.317-.516-.747-1.193l-1.867-2.619c-.227-.363-.397-.58-.51-.678a.999.999 0 0 0-.358-.167c-.145-.033-.34-.057-.926-.074V.561c.967.032 1.25.048 1.738.048.503 0 1.793-.016 2.702-.048v.443c-.567.017-1.063.041-1.16.074-.098.04-.147.104-.154.184-.009.08.121.347.372.782l2.184 3.506 2.329-3.506c.292-.435.43-.701.438-.782 0-.08-.048-.145-.138-.184-.097-.033-.519-.057-1.079-.074V.561c.9.032 1.436.048 1.94.048.487 0 .747-.016 1.712-.048v.443c-.584.017-.795.041-.94.074-.155.04-.277.096-.375.167-.121.098-.316.315-.576.678L34.76 4.97c-.413.644-.649 1.039-.698 1.184a1.113 1.113 0 0 0-.081.41v.532c0 .63.008 1.233.041 1.83.017.435.049.693.105.773.05.08.146.146.268.185.114.041.463.065 1.031.074v.442a53.085 53.085 0 0 0-2.062-.047M41.244 10.232a4.477 4.477 0 0 1-1.688-1.048 4.616 4.616 0 0 1-1.038-1.693 5.677 5.677 0 0 1-.366-1.966c0-.733.122-1.41.349-2.022.236-.621.617-1.177 1.153-1.676A5.428 5.428 0 0 1 41.48.714c.673-.249 1.452-.37 2.321-.37.804 0 1.534.105 2.19.314.659.218 1.202.5 1.624.854.422.355.747.741.99 1.16a4 4 0 0 1 .447 1.105c.113.427.162.886.162 1.369 0 1.556-.551 2.845-1.655 3.884-1.104 1.032-2.493 1.548-4.172 1.548a6.572 6.572 0 0 1-2.143-.346zm.203-8.817a3.129 3.129 0 0 0-1.314 1.426c-.301.622-.447 1.323-.447 2.112 0 .435.049.878.138 1.338.097.45.211.846.357 1.168.227.557.536 1.024.909 1.395.382.378.803.66 1.266.837.462.17.982.258 1.542.258.788 0 1.47-.177 2.045-.54a3.28 3.28 0 0 0 1.29-1.53c.293-.653.43-1.419.43-2.281 0-.733-.104-1.41-.308-2.032a3.896 3.896 0 0 0-.502-1.022 3.536 3.536 0 0 0-.747-.806c-.293-.234-.666-.428-1.128-.58a4.716 4.716 0 0 0-1.493-.234c-.78 0-1.454.17-2.038.49z"/></g></g></svg>