<svg width="155" height="148" viewBox="0 0 155 148" xmlns="http://www.w3.org/2000/svg"><title>placeholder_chat copy</title><g fill="none" fill-rule="evenodd"><path d="M60.53 4.996A2.996 2.996 0 0 1 63.524 2h74.165a2.997 2.997 0 0 1 2.996 2.996v47.255a2.999 2.999 0 0 1-3.006 2.996h-11.675v12.504l-17.134-12.504H63.535a3.002 3.002 0 0 1-3.006-2.996V4.996z" stroke="#A4ADB7" stroke-width="3" stroke-linejoin="round" fill="#F0F2F4"/><g transform="translate(2 104)"><ellipse stroke="#A4ADB7" stroke-width="3" fill="#FFF" cx="21.184" cy="21.184" rx="21.184" ry="21.184"/><path d="M9.015 37.289A5.8 5.8 0 0 0 8 38.012a21.1 21.1 0 0 0 13.648 4.984 21.11 21.11 0 0 0 13.571-4.914 5.615 5.615 0 0 0-1.114-.746l-6.773-3.386a2.587 2.587 0 0 1-1.43-2.313v-2.656c.192-.215.41-.496.641-.824a15.529 15.529 0 0 0 2.105-4.243 2.128 2.128 0 0 0 1.512-2.023v-2.836c0-.625-.277-1.184-.711-1.574v-4.102S30.293 7 21.648 7c-8.64 0-7.797 6.379-7.797 6.379v4.102c-.433.39-.711.949-.711 1.574v2.836c0 .746.395 1.402.981 1.785.711 3.086 2.566 5.305 2.566 5.305v2.594c0 .941-.519 1.812-1.347 2.265l-6.325 3.449z" fill="#A4ADB7"/></g><g transform="translate(110.631 78)"><ellipse stroke="#A4ADB7" stroke-width="3" fill="#EDEEF1" cx="21.184" cy="21.184" rx="21.184" ry="21.184"/><path d="M15.34 33.84l-6.325 3.449A5.8 5.8 0 0 0 8 38.012a21.1 21.1 0 0 0 13.648 4.984 21.11 21.11 0 0 0 13.571-4.914 5.615 5.615 0 0 0-1.114-.746l-6.773-3.386a2.587 2.587 0 0 1-1.43-2.313v-2.656c.192-.215.41-.496.641-.824a15.529 15.529 0 0 0 2.105-4.243 2.128 2.128 0 0 0 1.512-2.023v-2.836c0-.625-.277-1.184-.711-1.574v-4.102S30.293 7 21.648 7c-8.64 0-7.797 6.379-7.797 6.379v4.102c-.433.39-.711.949-.711 1.574v2.836c0 .746.395 1.402.981 1.785.711 3.086 2.566 5.305 2.566 5.305v2.594c0 .941-.519 1.812-1.347 2.265z" fill="#A4ADB7"/></g><path d="M9 23.001A3.001 3.001 0 0 1 12.001 20h89.04a3 3 0 0 1 3.002 3.001v57.55a2.995 2.995 0 0 1-2.994 3.002H45.304L27.394 96.2V83.553H11.995A2.998 2.998 0 0 1 9 80.552v-57.55z" stroke="#A4ADB7" stroke-width="3" stroke-linejoin="round" fill="#FFF"/><g stroke="#A4ADB7" stroke-width="4" stroke-linecap="round" fill="#FFF"><path d="M30.215 37.145h52M30.215 50.886h52M30.215 64.627h26"/></g></g></svg>